<?xml version="1.0" standalone="no"?>
<!DOCTYPE svg PUBLIC "-//W3C//DTD SVG 20010904//EN"
 "http://www.w3.org/TR/2001/REC-SVG-20010904/DTD/svg10.dtd">
<svg version="1.0" xmlns="http://www.w3.org/2000/svg"
 width="24.000000pt" height="24.000000pt" viewBox="0 0 24.000000 24.000000"
 preserveAspectRatio="xMidYMid meet">

<g transform="translate(0.000000,24.000000) scale(0.100000,-0.100000)"
fill="#dc2626" stroke="none">
<path d="M136 201 l-28 -19 33 -35 c33 -34 35 -35 64 -22 23 11 26 14 10 15
-15 0 -17 2 -6 9 11 7 9 13 -8 30 -11 11 -21 24 -20 28 1 15 -17 12 -45 -6z"/>
<path d="M86 161 c-4 -5 6 -24 21 -43 l27 -33 -31 29 c-27 24 -31 25 -27 9 4
-14 -4 -28 -25 -46 -30 -25 -40 -47 -22 -47 5 0 19 12 31 27 12 16 33 28 48
29 15 1 33 3 40 3 20 2 13 26 -16 54 -30 29 -38 32 -46 18z"/>
</g>
</svg>
