<?xml version="1.0" standalone="no"?>
<!DOCTYPE svg PUBLIC "-//W3C//DTD SVG 20010904//EN"
 "http://www.w3.org/TR/2001/REC-SVG-20010904/DTD/svg10.dtd">
<svg version="1.0" xmlns="http://www.w3.org/2000/svg"
 width="170.000000pt" height="32.000000pt" viewBox="0 0 170.000000 32.000000"
 preserveAspectRatio="xMidYMid meet">

<g transform="translate(0.000000,32.000000) scale(0.100000,-0.100000)"
fill="#333333" stroke="none">
<path d="M183 230 c-18 -11 -33 -23 -33 -28 0 -4 16 -23 35 -42 l35 -34 32 17
c18 10 25 15 15 13 -14 -5 -16 -2 -8 12 11 20 -11 58 -28 48 -6 -4 -8 2 -6 14
5 25 -2 25 -42 0z"/>
<path d="M363 232 c-7 -4 -11 -43 -12 -104 l-1 -98 36 0 37 0 -7 41 -6 40 39
-41 c39 -41 63 -48 69 -19 1 9 -8 27 -22 42 -21 23 -22 27 -8 27 45 0 57 63
19 98 -18 17 -35 22 -78 22 -30 0 -59 -4 -66 -8z m115 -64 c-2 -6 -18 -12 -36
-12 -24 -1 -32 3 -32 17 0 11 8 17 25 17 14 0 25 6 25 13 0 6 5 4 11 -6 6 -10
9 -23 7 -29z"/>
<path d="M624 227 c-35 -17 -74 -89 -74 -135 0 -59 6 -69 40 -64 26 4 30 9 30
34 0 37 24 33 28 -5 3 -28 16 -32 58 -21 19 5 20 11 16 57 -5 53 -48 148 -67
146 -5 -1 -19 -6 -31 -12z m20 -73 c9 -22 8 -24 -9 -24 -8 0 -15 9 -15 20 0
24 15 27 24 4z"/>
<path d="M758 233 c-15 -4 -17 -17 -15 -101 l2 -97 35 0 c34 0 35 1 32 36 -3
36 -3 37 42 43 30 5 51 15 61 29 16 23 18 18 15 -45 -3 -61 6 -75 40 -70 28 4
30 7 30 47 0 39 2 43 21 38 18 -5 20 -11 16 -40 -7 -38 7 -49 46 -40 21 6 22
11 24 107 l1 100 -34 0 c-33 0 -34 -1 -34 -40 0 -32 -4 -40 -18 -40 -14 0 -17
7 -14 40 l4 40 -41 0 c-39 0 -41 -1 -41 -31 l0 -31 -26 31 c-23 28 -31 31 -77
30 -29 -1 -60 -3 -69 -6z m112 -59 c0 -7 -16 -14 -35 -16 -29 -3 -35 -1 -35
14 0 13 8 18 25 18 14 0 25 6 25 13 0 15 20 -13 20 -29z"/>
<path d="M1204 227 c-35 -17 -74 -89 -74 -135 0 -59 6 -69 40 -64 26 4 30 9
30 34 0 37 24 33 28 -5 3 -28 16 -32 58 -21 19 5 20 11 16 57 -5 53 -48 148
-67 146 -5 -1 -19 -6 -31 -12z m26 -89 c0 -5 -7 -8 -15 -8 -15 0 -20 21 -8 33
7 7 23 -11 23 -25z"/>
<path d="M1323 138 l2 -103 57 3 c32 2 73 -1 93 -7 19 -5 35 -6 35 -3 0 4 37
6 83 4 64 -3 79 -1 70 8 -8 9 -9 20 -3 36 11 27 5 29 -34 14 -26 -9 -26 -9
-26 38 0 26 4 62 9 80 l10 32 -44 0 -44 0 -4 -97 c-2 -66 -6 -91 -11 -75 -7
19 -15 22 -61 22 -69 0 -83 24 -17 27 41 2 61 14 62 36 0 4 -25 7 -56 7 -34 0
-53 4 -49 10 3 6 23 10 44 10 35 0 39 3 43 30 l5 30 -84 0 -83 0 3 -102z"/>
<path d="M110 170 c-6 -11 -8 -25 -5 -30 11 -18 -4 -45 -34 -63 -18 -11 -29
-25 -28 -37 1 -21 7 -18 58 32 17 17 34 26 43 22 24 -9 19 6 -11 40 -19 21
-15 19 13 -7 31 -29 43 -34 52 -25 9 9 4 20 -25 50 -43 44 -48 45 -63 18z"/>
</g>
</svg>
